<svg width="300" height="317" viewBox="0 0 300 317" fill="none" xmlns="http://www.w3.org/2000/svg">
<g clip-path="url(#clip0_60_584)">
<rect x="6" y="6" width="288" height="305" rx="11" fill="#EAF4F4" stroke="#EAF4F4" stroke-width="12"/>
<path d="M168.276 71.1625C154.662 48.1588 127.727 47.0868 127.727 47.0868C127.727 47.0868 101.481 43.7305 84.6444 78.7653C68.9513 111.421 47.2927 142.95 81.1576 150.595L87.2746 131.556L91.0628 152.012C95.8845 152.359 100.722 152.441 105.552 152.26C141.819 151.089 176.357 152.602 175.245 139.588C173.767 122.288 181.375 93.2966 168.276 71.1625Z" fill="#2F2E41"/>
<path d="M118.052 149.538C118.118 152.128 118.098 154.858 116.812 157.106C114.261 161.563 108.034 162.23 104.289 165.742C100.35 169.436 99.9041 175.43 99.7164 180.827C99.5202 186.469 99.3536 192.296 101.413 197.552C102.674 200.448 104.268 203.187 106.163 205.713C108.45 209.01 110.758 212.291 113.087 215.558C114.331 217.398 115.717 219.137 117.232 220.761C121.403 225.009 127.125 227.361 132.837 229.039C136.528 230.123 140.514 230.968 144.176 229.79C146.599 228.844 148.832 227.471 150.769 225.736C153.493 223.573 156.258 221.366 158.232 218.502C161.308 214.041 162.159 208.457 162.796 203.077C164.681 187.166 165.414 171.141 164.99 155.125C165.067 153.38 164.755 151.64 164.075 150.03C162.178 146.327 157.098 145.536 154.422 142.351C152.133 139.627 152.04 135.74 152.06 132.183L152.109 123.127C152.189 122.364 152.036 121.595 151.669 120.921C151.337 120.558 150.937 120.264 150.491 120.056C150.045 119.848 149.563 119.73 149.072 119.709C143.443 118.775 137.737 118.393 132.034 118.569C127.411 118.71 118.54 118.323 114.542 120.898C110.913 123.236 115.457 129.692 116.297 133.318C117.427 138.652 118.015 144.086 118.052 149.538Z" fill="#A0616A"/>
<path d="M128.664 133.987C148.88 133.987 165.268 117.599 165.268 97.3836C165.268 77.168 148.88 60.78 128.664 60.78C108.449 60.78 92.0607 77.168 92.0607 97.3836C92.0607 117.599 108.449 133.987 128.664 133.987Z" fill="#A0616A"/>
<path d="M113.592 188.048C111.264 184.587 109.348 180.867 107.883 176.961C106.574 173.005 106.231 168.584 107.784 164.717C103.829 162.422 98.4582 164.281 95.5777 167.833C92.6972 171.384 91.8157 176.146 91.5618 180.712C91.3078 185.277 91.577 189.911 90.5833 194.374C88.385 204.25 80.2273 212.369 79.6207 222.469C79.0238 232.404 85.837 241.059 89.1887 250.432C91.2202 256.273 92.0694 262.46 91.6868 268.633C91.5782 270.626 91.4531 272.897 92.8592 274.313C93.5907 274.952 94.4565 275.419 95.3927 275.678C111.566 281.368 129.036 281.861 146.176 282.295L174.486 283.012C176.198 283.216 177.933 282.926 179.485 282.175C182.025 280.617 182.365 277.127 182.408 274.148C182.78 248.491 181.689 222.839 180.598 197.203C180.202 187.911 179.8 178.565 177.83 169.476C177.328 167.162 176.505 164.588 174.369 163.566C172.56 162.702 170.414 163.262 168.534 163.956C159.759 167.219 152.175 173.057 146.776 180.705C140.967 188.972 138.11 198.89 132.425 207.22C128.3 213.265 125.914 207.996 123.165 203.545C119.975 198.378 116.784 193.213 113.592 188.048Z" fill="white"/>
<path d="M109.21 165.35C108.49 165.86 107.78 166.4 107.1 166.97C104.552 169.073 102.269 171.477 100.3 174.13C97.0411 178.574 94.4472 183.468 92.5999 188.66C89.2799 197.76 87.8399 207.42 86.46 217C85.8576 220.529 85.5333 224.1 85.49 227.68C85.7 240.84 93.48 253.03 93.49 266.2C93.49 266.7 93.48 267.19 93.45 267.69C93.3572 269.846 93.1031 271.992 92.69 274.11C92.12 277.2 91.3 280.25 90.49 283.29C88.45 290.91 86.25 298.81 82.27 305.5C81.87 306.18 81.44 306.85 81 307.5H53C53.22 306.83 53.45 306.17 53.67 305.5C58.44 291.37 63.2067 277.243 67.9701 263.12C69.4301 258.8 70.89 254.46 71.92 250.02C73.0983 244.537 73.9034 238.981 74.33 233.39C75.43 221.8 76.1534 210.187 76.5001 198.55C76.6301 194.37 76.7201 190.1 78.0701 186.14C79.3357 182.913 81.0092 179.862 83.05 177.06C85.94 172.71 88.8301 168.36 91.7201 164.01C93.3301 161.59 95.0201 159.1 97.5001 157.59C99.5701 156.32 102.03 155.86 104.21 154.79C105.582 154.012 106.898 153.139 108.15 152.18C111.41 149.87 115.24 147.44 118.05 149.8C118.506 150.178 118.897 150.627 119.21 151.13C119.37 151.377 119.514 151.634 119.64 151.9C122.34 157.74 112.84 162.78 109.21 165.35Z" fill="#2F2E41"/>
<path d="M201.45 307.5H71.77C72.47 306.86 73.16 306.19 73.83 305.5C73.93 305.4 74.02 305.3 74.12 305.2C79.08 300.05 80.21 293.72 82.7 287.02C84.57 281.97 86.44 276.923 88.31 271.88C88.606 270.898 89.0918 269.984 89.74 269.19C90.2817 268.631 90.9611 268.224 91.71 268.01C92.2756 267.836 92.8596 267.729 93.45 267.69C94.2924 267.635 95.1376 267.635 95.98 267.69C119.25 268.89 142.503 270.353 165.74 272.08C168.74 272.31 171.74 272.54 174.74 272.77C177.19 274.59 179.61 276.52 181.92 278.56C189.43 285.16 195.94 292.93 199.67 302.11C200.12 303.22 200.53 304.35 200.87 305.5C201.09 306.16 201.28 306.83 201.45 307.5Z" fill="#2F2E41"/>
<path d="M162.257 68.9454L135.647 55.0063L98.9 60.7084L91.297 94.2884L110.223 93.5604L115.51 81.2234V93.3564L124.243 93.0204L129.311 73.3804L132.479 94.2884L163.524 93.6544L162.257 68.9454Z" fill="#2F2E41"/>
<path d="M201.45 307.5H172.17C171.96 306.84 171.76 306.17 171.57 305.5C169.502 298.062 167.985 290.481 167.03 282.82C166.72 280.63 166.45 278.43 166.2 276.24C166.04 274.85 165.89 273.47 165.74 272.08C164.06 256.64 162.77 241.05 158.05 226.27C157.48 224.48 156.86 222.7 156.26 220.92C155.152 217.855 154.282 214.709 153.66 211.51C152.38 204.19 153.34 196.61 152.02 189.3C151.28 185.22 149.81 181.63 148.92 177.89C148.353 175.633 148.131 173.303 148.26 170.98C150.415 168.947 153.127 167.603 156.05 167.12C157.06 166.95 158.2 166.82 158.81 166.01C159.17 165.394 159.33 164.681 159.27 163.97C159.34 159.253 159.069 154.538 158.46 149.86C158.26 148.22 158.01 146.58 157.71 144.95C157.7 144.87 157.68 144.8 157.67 144.72C160.11 143.66 162.86 143.65 165.51 143.66C168.4 143.67 171.28 143.67 174.16 143.68C179.49 143.7 184.82 143.717 190.15 143.73C195.11 143.74 200.24 143.79 204.75 145.84C209.41 147.97 212.95 152.08 215.29 156.64C217.63 161.2 218.9 166.22 220.05 171.21C220.369 172.591 220.537 174.003 220.55 175.42C220.77 186.68 212.37 198.02 211.53 209.53C211.26 213.26 211.57 217.02 211.23 220.75C210.89 224.49 209.89 228.15 209.71 231.89C209.7 232.08 209.69 232.28 209.69 232.47C209.58 237.34 211 242.11 212.64 246.7C215.18 253.83 218.27 260.74 221.46 267.61C224.54 274.26 227.7 280.88 230.54 287.62C232.017 290.749 233.012 294.083 233.49 297.51C233.805 300.265 233.279 303.05 231.98 305.5C231.647 306.105 231.248 306.672 230.79 307.19L230.77 307.21C230.68 307.31 230.59 307.41 230.5 307.5H201.45Z" fill="#2F2E41"/>
<path d="M229.34 297.24C229.217 298.571 228.855 299.868 228.27 301.07C228.22 301.19 228.17 301.3 228.12 301.42C227.54 302.79 226.95 304.14 226.34 305.5C226.04 306.16 225.74 306.83 225.43 307.5H208.87C209.469 306.873 210.024 306.205 210.53 305.5C213.07 301.97 214.54 297.68 217.13 293.87C217.482 293.349 217.887 292.866 218.34 292.43C222.49 288.41 229.6 289.23 229.34 297.24Z" fill="#FFB8B8"/>
<path d="M240.12 307.5C240.332 306.843 240.509 306.175 240.65 305.5C240.77 304.97 240.87 304.45 240.95 303.92C241.48 300.43 241.47 296.86 242.3 293.43C243.47 288.52 246.98 282.71 244.09 278.58C246.338 278.119 248.458 277.17 250.3 275.8C252.02 274.3 253.02 271.7 251.98 269.66C250.95 267.65 248.16 266.32 248.54 264.09C248.729 263.383 249.063 262.722 249.52 262.15C251.036 259.758 251.821 256.975 251.776 254.143C251.732 251.311 250.861 248.553 249.27 246.21C248.36 244.91 247.24 243.77 246.41 242.41C245.502 240.747 244.807 238.976 244.34 237.14C241.452 227.835 237.196 219.011 231.71 210.96C230.494 209.41 229.551 207.666 228.92 205.8C228.551 203.778 228.477 201.713 228.7 199.67C228.9 191.59 225.88 183.7 221.53 176.9C221.21 176.4 220.88 175.91 220.55 175.42C216.35 169.23 211.14 163.8 205.95 158.41C203.81 159.41 201.92 160.06 200.81 162.14C200.266 163.313 199.931 164.572 199.82 165.86C198.4 175.76 197.17 185.72 196.21 195.67C195.73 200.7 195.24 205.77 195.81 210.79C196.38 215.81 198.09 220.84 201.49 224.57C203.62 226.91 206.32 228.65 208.63 230.81C209 231.16 209.36 231.52 209.71 231.89C211.375 233.663 212.853 235.604 214.12 237.68C219.662 246.633 222.231 257.109 221.46 267.61C221.32 269.503 221.07 271.386 220.71 273.25C220.271 275.918 219.37 278.49 218.05 280.85C217 282.58 215.62 284.09 214.67 285.88C213.72 287.67 213.27 289.9 214.21 291.69C215.62 291.689 217.018 291.939 218.34 292.43C221.453 293.63 224.159 295.695 226.14 298.38C226.87 299.346 227.532 300.362 228.12 301.42C228.862 302.739 229.523 304.101 230.1 305.5C230.34 306.05 230.57 306.62 230.79 307.19C230.84 307.289 230.88 307.393 230.91 307.5H240.12Z" fill="#2F2E41"/>
<path d="M158.361 133.52L137.157 142.768L132.181 143.26L109.576 138.346L110.573 158.461L132.673 148.236L137.649 147.744L161.325 153.44L158.361 133.52Z" fill="#6B9080"/>
</g>
<defs>
<clipPath id="clip0_60_584">
<rect width="300" height="317" fill="white"/>
</clipPath>
</defs>
</svg>
